<svg width="137" height="137" viewBox="0 0 137 137" fill="none" xmlns="http://www.w3.org/2000/svg">
<path d="M69.7234 12.063L70.6242 3.38235L71.9127 3.51652L71.772 4.87287L71.885 4.88464C72.1139 4.44005 72.4432 4.11065 72.873 3.89642C73.3031 3.67843 73.8007 3.59886 74.3658 3.65771C74.9385 3.71734 75.4016 3.89695 75.7551 4.19654C76.1128 4.49275 76.375 4.88375 76.5416 5.36954L76.6321 5.37895C76.9009 4.95375 77.2712 4.63242 77.7432 4.41498C78.2155 4.19377 78.7625 4.11553 79.3841 4.18026C80.1602 4.26108 80.7698 4.57019 81.2129 5.10761C81.6564 5.64126 81.8252 6.4186 81.7192 7.43964L81.1163 13.2493L79.7826 13.1105L80.3855 7.30076C80.452 6.66026 80.3243 6.18425 80.0025 5.87273C79.6807 5.5612 79.2824 5.38073 78.8077 5.3313C78.1974 5.26774 77.7054 5.40312 77.3317 5.73744C76.9585 6.06798 76.7428 6.51394 76.6845 7.07532L76.098 12.7268L74.7417 12.5856L75.3587 6.64022C75.4099 6.14665 75.291 5.73249 75.0021 5.39774C74.7135 5.05921 74.3168 4.86366 73.812 4.8111C73.4654 4.775 73.1318 4.83357 72.8112 4.9868C72.4944 5.14042 72.2267 5.37152 72.0081 5.68008C71.7936 5.98526 71.6643 6.35073 71.6201 6.77647L71.0571 12.2019L69.7234 12.063Z" fill="white"/>
<path d="M84.7034 14.8296C83.895 14.5981 83.2486 14.2199 82.7641 13.6951C82.2844 13.1676 81.9781 12.5362 81.8453 11.8007C81.7172 11.0627 81.7758 10.2639 82.0211 9.40427C82.2664 8.54465 82.6392 7.83186 83.1395 7.2659C83.6445 6.69733 84.2317 6.30992 84.9011 6.10366C85.5752 5.8948 86.291 5.89881 87.0484 6.11571C87.4854 6.24084 87.8961 6.43725 88.2806 6.70495C88.6651 6.97265 88.9853 7.32046 89.2414 7.74839C89.4984 8.17267 89.6543 8.68225 89.7091 9.27713C89.7639 9.872 89.6795 10.561 89.456 11.3441L89.3001 11.8905L82.8327 10.0386L83.1508 8.92399L88.3072 10.4005C88.4423 9.927 88.4682 9.47736 88.3849 9.05161C88.3052 8.6269 88.1231 8.25756 87.8385 7.9436C87.5575 7.63067 87.184 7.40748 86.7178 7.27401C86.2044 7.12698 85.7237 7.12725 85.2759 7.27482C84.8327 7.41979 84.4533 7.66575 84.1376 8.01271C83.822 8.35967 83.5981 8.76445 83.4661 9.22704L83.2541 9.9701C83.0732 10.6039 83.0291 11.1724 83.1218 11.6757C83.2192 12.1764 83.4318 12.5978 83.7596 12.9399C84.0884 13.2784 84.5132 13.5222 85.034 13.6713C85.3726 13.7682 85.692 13.8085 85.9922 13.792C86.297 13.7729 86.5771 13.6955 86.8325 13.5598C87.0889 13.4204 87.3133 13.2207 87.5057 12.9606L88.6513 13.6669C88.3996 14.0519 88.0733 14.3603 87.6723 14.5922C87.2723 14.8205 86.8193 14.9587 86.3131 15.0068C85.808 15.0513 85.2715 14.9922 84.7034 14.8296Z" fill="white"/>
<path d="M95.2853 14.9996L97.393 10.2907L98.6162 10.8401L95.0507 18.8058L93.8275 18.2564L94.4311 16.9081L94.3481 16.8708C93.9805 17.1915 93.5363 17.4052 93.0154 17.5118C92.4962 17.6149 91.9359 17.5315 91.3347 17.2615C90.8371 17.038 90.4436 16.7305 90.154 16.3388C89.8661 15.9438 89.7106 15.4753 89.6875 14.9334C89.666 14.3881 89.8069 13.7766 90.1102 13.099L92.3757 8.03743L93.5989 8.58679L91.3705 13.5654C91.1106 14.1462 91.0656 14.6824 91.2357 15.174C91.4092 15.6672 91.7499 16.0278 92.2578 16.256C92.5619 16.3925 92.906 16.4536 93.2901 16.4393C93.6776 16.4264 94.0505 16.3074 94.4086 16.0821C94.7702 15.8583 95.0624 15.4975 95.2853 14.9996Z" fill="white"/>
<path d="M97.6427 24.2651L104.808 14.6394L105.846 15.4146L105.018 16.5267L105.146 16.6219C105.315 16.5593 105.54 16.486 105.82 16.4018C106.105 16.317 106.435 16.2987 106.81 16.347C107.19 16.3946 107.607 16.5884 108.063 16.9284C108.651 17.3681 109.061 17.9031 109.29 18.5333C109.52 19.1635 109.56 19.8431 109.409 20.5721C109.258 21.3011 108.909 22.0332 108.362 22.7685C107.81 23.5099 107.206 24.0584 106.549 24.4142C105.894 24.7669 105.233 24.9255 104.565 24.89C103.9 24.8515 103.276 24.6147 102.693 24.1795C102.244 23.844 101.94 23.5009 101.78 23.1503C101.623 22.7966 101.543 22.4697 101.54 22.1695C101.539 21.8662 101.547 21.6213 101.563 21.4348L101.472 21.3668L98.717 25.0675L97.6427 24.2651ZM103.259 18.9285C102.865 19.4572 102.595 19.9814 102.449 20.5011C102.305 21.0178 102.297 21.5011 102.425 21.9511C102.555 22.3981 102.836 22.7826 103.267 23.1045C103.716 23.4399 104.179 23.6014 104.656 23.5888C105.138 23.5754 105.605 23.4234 106.058 23.1326C106.516 22.8411 106.93 22.4461 107.301 21.9478C107.667 21.4556 107.922 20.9553 108.064 20.447C108.212 19.9379 108.22 19.4546 108.088 18.997C107.962 18.5386 107.671 18.1394 107.216 17.7994C106.779 17.473 106.329 17.3096 105.867 17.3092C105.406 17.3059 104.953 17.445 104.508 17.7267C104.064 18.0053 103.648 18.4059 103.259 18.9285Z" fill="white"/>
<path d="M106.098 26.804L112.103 20.4711L113.041 21.3641L112.134 22.3206L112.2 22.3833C112.613 22.1796 113.062 22.1237 113.549 22.2158C114.036 22.3078 114.469 22.534 114.848 22.8943C114.919 22.9622 115.007 23.0485 115.111 23.153C115.216 23.2576 115.293 23.3388 115.342 23.3965L114.404 24.386C114.379 24.3464 114.315 24.2622 114.213 24.1335C114.116 24.0046 114.003 23.8788 113.874 23.7561C113.567 23.4636 113.231 23.2671 112.867 23.1665C112.508 23.0658 112.152 23.0616 111.798 23.1538C111.45 23.2459 111.14 23.4349 110.869 23.7208L107.069 27.7283L106.098 26.804Z" fill="white"/>
<path d="M111.9 33.233C111.397 32.6268 111.1 31.9749 111.008 31.2774C110.919 30.5827 111.026 29.8914 111.332 29.2033C111.639 28.5182 112.139 27.8872 112.832 27.3102C113.53 26.7283 114.245 26.3471 114.977 26.1667C115.711 25.9892 116.41 26.0077 117.076 26.2224C117.744 26.4399 118.33 26.8517 118.833 27.4579C119.336 28.0641 119.632 28.7145 119.722 29.4092C119.814 30.1068 119.704 30.7993 119.394 31.4868C119.086 32.1773 118.582 32.8134 117.884 33.3953C117.191 33.9723 116.48 34.3484 115.749 34.5235C115.02 34.7015 114.322 34.6817 113.654 34.4642C112.988 34.2496 112.404 33.8392 111.9 33.233ZM112.826 32.462C113.208 32.9225 113.641 33.2031 114.123 33.304C114.606 33.4049 115.098 33.3667 115.601 33.1895C116.104 33.0123 116.579 32.737 117.027 32.3636C117.476 31.9903 117.834 31.5709 118.103 31.1057C118.371 30.6404 118.501 30.1598 118.493 29.6637C118.485 29.1676 118.29 28.6894 117.907 28.2289C117.525 27.7684 117.091 27.489 116.606 27.3905C116.12 27.2921 115.625 27.3327 115.119 27.5123C114.613 27.692 114.137 27.9685 113.688 28.3418C113.24 28.7152 112.883 29.1333 112.618 29.5961C112.352 30.059 112.225 30.5372 112.236 31.0308C112.247 31.5245 112.444 32.0015 112.826 32.462Z" fill="white"/>
<path d="M124.228 35.3225L123.275 35.9411L120.72 31.9906L121.674 31.372L124.228 35.3225ZM115.118 37.3057L123.449 31.8996C123.869 31.6275 124.282 31.4993 124.689 31.515C125.096 31.5308 125.472 31.6508 125.815 31.875C126.159 32.0991 126.443 32.3862 126.67 32.736C126.849 33.0128 126.972 33.253 127.041 33.4568C127.11 33.6606 127.153 33.8179 127.17 33.9285L125.988 34.235C125.97 34.1653 125.942 34.0704 125.905 33.95C125.87 33.8329 125.8 33.6932 125.695 33.5309C125.454 33.1588 125.187 32.9508 124.892 32.9071C124.6 32.8665 124.273 32.9638 123.91 33.1988L115.846 38.4316L115.118 37.3057Z" fill="white"/>
<path d="M117.527 41.2728L125.2 37.1145L125.837 38.2943L118.164 42.4526L117.527 41.2728ZM126.803 37.0214C126.679 36.7914 126.65 36.5507 126.716 36.2993C126.785 36.0511 126.929 35.8675 127.148 35.7484C127.368 35.6293 127.6 35.6089 127.845 35.6874C128.092 35.7692 128.277 35.9251 128.401 36.1551C128.526 36.3851 128.553 36.6241 128.485 36.8722C128.419 37.1237 128.275 37.309 128.056 37.4281C127.836 37.5472 127.603 37.5659 127.356 37.4841C127.111 37.4056 126.927 37.2514 126.803 37.0214Z" fill="white"/>
<path d="M127.875 47.5906L127.094 46.6126C127.25 46.4647 127.386 46.2859 127.504 46.0762C127.626 45.8684 127.696 45.625 127.715 45.346C127.733 45.067 127.667 44.7476 127.515 44.3879C127.309 43.8955 127.023 43.533 126.658 43.3004C126.298 43.0698 125.945 43.0273 125.6 43.173C125.293 43.3025 125.097 43.5165 125.013 43.815C124.929 44.1136 124.927 44.5253 125.008 45.0503L125.217 46.3682C125.344 47.1612 125.303 47.8098 125.091 48.3141C124.883 48.8169 124.499 49.1867 123.937 49.4236C123.476 49.6178 123.008 49.6588 122.534 49.5464C122.061 49.4375 121.62 49.1915 121.213 48.8083C120.805 48.4252 120.47 47.9211 120.208 47.296C119.863 46.4753 119.756 45.721 119.886 45.0332C120.016 44.3453 120.393 43.7855 121.017 43.354L121.803 44.4037C121.417 44.6979 121.181 45.046 121.095 45.4481C121.011 45.8536 121.075 46.3096 121.288 46.8159C121.53 47.3921 121.844 47.7981 122.231 48.0338C122.623 48.2716 122.991 48.3176 123.337 48.172C123.616 48.0542 123.809 47.8579 123.915 47.5829C124.025 47.3064 124.042 46.9457 123.966 46.5009L123.717 45.0275C123.581 44.217 123.625 43.5617 123.846 43.0615C124.072 42.5633 124.463 42.1972 125.018 41.9632C125.471 41.772 125.926 41.7302 126.382 41.838C126.84 41.9493 127.261 42.1847 127.647 42.5443C128.034 42.9075 128.346 43.3719 128.583 43.9376C128.918 44.7338 129.006 45.4325 128.848 46.0336C128.691 46.6383 128.367 47.1573 127.875 47.5906Z" fill="white"/>
<path d="M130.059 55.4156L129.411 54.3448C129.584 54.2184 129.743 54.0588 129.886 53.866C130.034 53.6758 130.135 53.4436 130.189 53.1693C130.244 52.895 130.219 52.5697 130.116 52.1935C129.974 51.6786 129.737 51.2822 129.406 51.0043C129.078 50.7291 128.734 50.6414 128.373 50.7411C128.051 50.8298 127.83 51.0167 127.708 51.3018C127.586 51.5869 127.531 51.995 127.543 52.5259L127.58 53.8597C127.605 54.6624 127.479 55.3001 127.205 55.7728C126.934 56.2444 126.504 56.5613 125.916 56.7235C125.434 56.8565 124.965 56.8366 124.509 56.6638C124.054 56.4946 123.649 56.1937 123.295 55.7611C122.94 55.3285 122.673 54.7853 122.493 54.1315C122.257 53.2732 122.248 52.5115 122.466 51.8463C122.683 51.1811 123.13 50.6748 123.804 50.3276L124.448 51.4702C124.028 51.712 123.749 52.0267 123.612 52.4142C123.476 52.8053 123.481 53.2657 123.626 53.7953C123.792 54.3979 124.051 54.8411 124.404 55.1249C124.762 55.4113 125.122 55.5046 125.483 55.4049C125.775 55.3243 125.992 55.1545 126.133 54.8956C126.277 54.6357 126.341 54.2803 126.323 53.8294L126.266 52.3362C126.236 51.5152 126.364 50.871 126.648 50.4037C126.936 49.939 127.371 49.6265 127.951 49.4663C128.426 49.3354 128.883 49.3528 129.321 49.5187C129.761 49.6882 130.148 49.9762 130.484 50.3826C130.821 50.7927 131.07 51.2936 131.233 51.8853C131.462 52.718 131.459 53.4221 131.225 53.9977C130.991 54.5769 130.602 55.0495 130.059 55.4156Z" fill="white"/>
<path d="M123.807 60.8601C123.732 60.3122 123.768 59.8008 123.913 59.3259C124.063 58.8506 124.316 58.4547 124.675 58.1381C125.037 57.8211 125.499 57.6241 126.062 57.5472C126.558 57.4796 126.973 57.5223 127.307 57.6755C127.645 57.8281 127.924 58.0556 128.145 58.3581C128.366 58.6605 128.546 59.0029 128.686 59.3852C128.831 59.7708 128.956 60.1608 129.064 60.5552C129.203 61.0714 129.311 61.4905 129.389 61.8124C129.472 62.1376 129.567 62.3693 129.673 62.5077C129.781 62.6498 129.941 62.7062 130.155 62.677L130.2 62.6709C130.756 62.595 131.167 62.3841 131.433 62.038C131.7 61.6957 131.792 61.2187 131.708 60.6069C131.622 59.9726 131.415 59.4943 131.089 59.1719C130.762 58.8495 130.431 58.6366 130.096 58.5333L130.375 57.2107C130.931 57.3641 131.381 57.6085 131.724 57.9439C132.072 58.2825 132.335 58.6672 132.512 59.0979C132.694 59.5319 132.814 59.9666 132.873 60.402C132.911 60.6797 132.921 61.0034 132.902 61.3729C132.888 61.7457 132.802 62.1148 132.646 62.4803C132.489 62.8495 132.222 63.1746 131.844 63.4557C131.465 63.7368 130.933 63.9242 130.246 64.018L124.549 64.7959L124.368 63.4673L125.539 63.3074L125.53 63.2398C125.33 63.1754 125.109 63.0526 124.866 62.8717C124.623 62.6907 124.403 62.4359 124.206 62.1074C124.008 61.7788 123.875 61.3631 123.807 60.8601ZM125.028 60.8998C125.099 61.4253 125.263 61.8541 125.518 62.1862C125.774 62.5221 126.078 62.7597 126.429 62.899C126.781 63.0421 127.138 63.0891 127.498 63.0399L128.714 62.8738C128.639 62.8267 128.56 62.7113 128.478 62.5276C128.4 62.3471 128.323 62.1358 128.248 61.8937C128.177 61.6549 128.111 61.4212 128.049 61.1926C127.992 60.9672 127.944 60.7845 127.906 60.6444C127.814 60.3053 127.697 59.9925 127.555 59.7061C127.417 59.4229 127.236 59.2029 127.012 59.0462C126.792 58.8927 126.513 58.839 126.176 58.8851C125.714 58.9481 125.388 59.1666 125.198 59.5404C125.013 59.9175 124.956 60.3706 125.028 60.8998Z" fill="white"/>
<path d="M124.685 70.2004L133.36 71.1549L133.219 72.4427L131.863 72.2935L131.851 72.4065C132.294 72.6382 132.622 72.9695 132.834 73.4006C133.049 73.8321 133.126 74.3302 133.064 74.895C133.002 75.4673 132.819 75.9293 132.518 76.2811C132.22 76.6369 131.827 76.8967 131.341 77.0604L131.331 77.1508C131.754 77.4222 132.074 77.7946 132.289 78.2679C132.507 78.7416 132.582 79.2891 132.514 79.9104C132.429 80.686 132.117 81.2938 131.577 81.7336C131.041 82.1738 130.263 82.3378 129.242 82.2255L123.437 81.5867L123.583 80.2538L129.389 80.8926C130.029 80.963 130.505 80.8383 130.819 80.5183C131.132 80.1984 131.314 79.8012 131.367 79.3268C131.433 78.7168 131.301 78.224 130.968 77.8483C130.64 77.473 130.195 77.2545 129.634 77.1927L123.987 76.5713L124.135 75.2158L130.077 75.8695C130.57 75.9238 130.985 75.8075 131.321 75.5206C131.661 75.2341 131.859 74.8386 131.914 74.334C131.952 73.9876 131.895 73.6536 131.744 73.3321C131.592 73.0144 131.362 72.7452 131.055 72.5247C130.751 72.3083 130.386 72.1767 129.961 72.1299L124.539 71.5333L124.685 70.2004Z" fill="white"/>
<path d="M121.84 85.1829C122.075 84.3756 122.457 83.7314 122.984 83.2503C123.514 82.7739 124.146 82.4717 124.882 82.3437C125.62 82.2204 126.418 82.2844 127.276 82.5355C128.134 82.7867 128.845 83.1644 129.408 83.6687C129.974 84.1777 130.358 84.7678 130.561 85.4389C130.766 86.1147 130.758 86.8308 130.537 87.5871C130.41 88.0235 130.212 88.4331 129.942 88.816C129.673 89.1988 129.323 89.5169 128.894 89.7702C128.469 90.0246 127.959 90.1771 127.364 90.228C126.769 90.2788 126.081 90.1898 125.299 89.9609L124.754 89.8013L126.638 83.3433L127.751 83.669L126.248 88.8179C126.721 88.9563 127.17 88.9852 127.596 88.9047C128.021 88.8278 128.391 88.648 128.706 88.3654C129.021 88.0863 129.246 87.7141 129.381 87.2487C129.531 86.736 129.533 86.2551 129.388 85.8061C129.245 85.3617 129.001 84.9805 128.656 84.6624C128.311 84.3442 127.908 84.1176 127.446 83.9824L126.704 83.7653C126.072 83.5801 125.504 83.5322 125 83.6216C124.499 83.7157 124.077 83.9256 123.734 84.2513C123.394 84.578 123.148 85.0013 122.996 85.5213C122.897 85.8595 122.855 86.1788 122.87 86.4792C122.888 86.7843 122.964 87.065 123.098 87.3214C123.236 87.5789 123.435 87.8047 123.694 87.999L122.982 89.1404C122.598 88.886 122.292 88.5575 122.062 88.1547C121.836 87.7531 121.7 87.2989 121.654 86.7922C121.613 86.2866 121.674 85.7501 121.84 85.1829Z" fill="white"/>
<path d="M121.616 95.7831L126.31 97.9245L125.755 99.1452L117.815 95.5226L118.37 94.302L119.714 94.9152L119.752 94.8324C119.433 94.4623 119.222 94.0162 119.118 93.4942C119.018 92.9737 119.104 92.4135 119.377 91.8135C119.603 91.317 119.912 90.9252 120.305 90.638C120.701 90.3525 121.17 90.2 121.711 90.1805C122.256 90.1627 122.866 90.3078 123.542 90.616L128.587 92.9178L128.032 94.1384L123.069 91.8744C122.49 91.6102 121.955 91.5616 121.463 91.7285C120.969 91.8989 120.607 92.2375 120.377 92.7443C120.239 93.0478 120.176 93.3918 120.188 93.7763C120.199 94.1643 120.316 94.5383 120.54 94.8983C120.761 95.2617 121.12 95.5567 121.616 95.7831Z" fill="white"/>
<path d="M112.354 98.0947L121.926 105.332L121.146 106.367L120.04 105.53L119.944 105.657C120.006 105.828 120.078 106.053 120.161 106.334C120.244 106.62 120.26 106.95 120.21 107.326C120.16 107.706 119.965 108.123 119.623 108.577C119.181 109.164 118.644 109.57 118.014 109.796C117.383 110.023 116.705 110.058 115.977 109.902C115.25 109.747 114.521 109.393 113.79 108.84C113.053 108.282 112.508 107.674 112.157 107.014C111.808 106.356 111.653 105.693 111.692 105.024C111.734 104.358 111.974 103.734 112.412 103.153C112.749 102.706 113.093 102.403 113.444 102.246C113.798 102.091 114.125 102.013 114.425 102.011C114.728 102.012 114.972 102.022 115.158 102.039L115.227 101.948L111.547 99.1656L112.354 98.0947ZM117.652 103.753C117.126 103.355 116.604 103.082 116.086 102.932C115.571 102.785 115.088 102.774 114.638 102.899C114.191 103.027 113.806 103.305 113.482 103.735C113.145 104.182 112.981 104.645 112.991 105.123C113.002 105.606 113.151 106.075 113.439 106.53C113.728 106.99 114.12 107.408 114.615 107.782C115.105 108.153 115.603 108.41 116.11 108.556C116.617 108.707 117.1 108.718 117.557 108.589C118.016 108.466 118.416 108.177 118.758 107.723C119.086 107.288 119.251 106.838 119.254 106.375C119.26 105.914 119.124 105.46 118.845 105.011C118.569 104.565 118.171 104.146 117.652 103.753Z" fill="white"/>
<path d="M109.775 106.553L116.063 112.605L115.166 113.54L114.216 112.626L114.153 112.691C114.354 113.106 114.407 113.556 114.313 114.044C114.218 114.531 113.99 114.963 113.628 115.34C113.56 115.411 113.473 115.499 113.368 115.603C113.263 115.707 113.182 115.783 113.124 115.833L112.141 114.887C112.181 114.862 112.265 114.799 112.394 114.697C112.524 114.601 112.65 114.488 112.773 114.36C113.067 114.054 113.265 113.719 113.367 113.355C113.47 112.996 113.476 112.639 113.386 112.284C113.296 111.935 113.109 111.624 112.826 111.35L108.847 107.52L109.775 106.553Z" fill="white"/>
<path d="M103.325 112.333C103.933 111.832 104.586 111.537 105.283 111.449C105.977 111.364 106.666 111.476 107.351 111.785C108.033 112.097 108.66 112.601 109.232 113.298C109.809 114.001 110.185 114.719 110.361 115.453C110.533 116.189 110.511 116.89 110.292 117.555C110.071 118.223 109.656 118.807 109.048 119.308C108.44 119.809 107.788 120.102 107.094 120.188C106.397 120.276 105.707 120.162 105.022 119.848C104.335 119.535 103.703 119.028 103.126 118.325C102.554 117.628 102.183 116.913 102.013 116.18C101.84 115.449 101.864 114.75 102.085 114.082C102.303 113.416 102.717 112.833 103.325 112.333ZM104.089 113.264C103.627 113.644 103.344 114.076 103.24 114.559C103.137 115.041 103.172 115.535 103.346 116.039C103.519 116.544 103.791 117.022 104.161 117.473C104.531 117.924 104.948 118.285 105.411 118.556C105.873 118.828 106.353 118.961 106.848 118.955C107.343 118.95 107.822 118.757 108.284 118.377C108.746 117.996 109.028 117.563 109.129 117.078C109.23 116.592 109.193 116.095 109.016 115.588C108.84 115.081 108.567 114.601 108.197 114.15C107.827 113.699 107.412 113.34 106.951 113.071C106.491 112.802 106.014 112.672 105.521 112.681C105.028 112.689 104.551 112.883 104.089 113.264Z" fill="white"/>
<path d="M101.165 124.668L100.553 123.71L104.515 121.172L105.126 122.13L101.165 124.668ZM99.2435 115.534L104.588 123.906C104.857 124.327 104.982 124.742 104.964 125.149C104.946 125.557 104.823 125.932 104.597 126.275C104.371 126.618 104.083 126.901 103.732 127.126C103.455 127.304 103.214 127.427 103.01 127.494C102.806 127.562 102.649 127.604 102.538 127.621L102.24 126.436C102.309 126.418 102.404 126.391 102.525 126.354C102.642 126.32 102.782 126.25 102.945 126.146C103.318 125.907 103.527 125.64 103.573 125.346C103.615 125.053 103.52 124.725 103.288 124.361L98.1144 116.258L99.2435 115.534Z" fill="white"/>
<path d="M95.2688 117.928L99.3711 125.631L98.1884 126.263L94.0861 118.56L95.2688 117.928ZM99.4535 127.236C99.684 127.113 99.9246 127.085 100.175 127.153C100.423 127.223 100.605 127.368 100.723 127.589C100.84 127.809 100.859 128.042 100.779 128.287C100.696 128.533 100.539 128.718 100.308 128.841C100.078 128.964 99.8386 128.991 99.5913 128.921C99.3405 128.853 99.1564 128.709 99.0389 128.488C98.9214 128.268 98.9043 128.034 98.9877 127.788C99.0677 127.543 99.2229 127.359 99.4535 127.236Z" fill="white"/>
<path d="M88.8941 128.254L89.8765 127.477C90.0232 127.634 90.2009 127.771 90.4097 127.89C90.6164 128.013 90.8592 128.085 91.1378 128.104C91.4165 128.124 91.736 128.059 92.0964 127.91C92.5898 127.705 92.9539 127.421 93.1887 127.057C93.4215 126.698 93.4663 126.345 93.3231 125.999C93.1958 125.691 92.9832 125.494 92.6855 125.408C92.3878 125.322 91.9764 125.319 91.4514 125.397L90.1332 125.599C89.3401 125.723 88.6923 125.678 88.1899 125.464C87.6889 125.254 87.3219 124.866 87.089 124.303C86.898 123.841 86.8602 123.373 86.9757 122.898C87.0876 122.425 87.3364 121.986 87.7219 121.58C88.1074 121.174 88.6134 120.841 89.2397 120.581C90.0619 120.24 90.8163 120.137 91.5027 120.27C92.1891 120.404 92.7458 120.784 93.1729 121.411L92.1188 122.192C91.8274 121.805 91.4811 121.567 91.08 121.479C90.6754 121.393 90.2194 121.455 89.7121 121.665C89.1348 121.904 88.7271 122.217 88.4889 122.603C88.2488 122.994 88.2003 123.362 88.3435 123.709C88.4593 123.989 88.6542 124.183 88.9283 124.291C89.2038 124.402 89.564 124.421 90.009 124.347L91.4828 124.105C92.2934 123.973 92.9479 124.02 93.4462 124.244C93.9424 124.473 94.3056 124.865 94.5357 125.422C94.7237 125.877 94.7624 126.333 94.6517 126.789C94.5375 127.246 94.2994 127.667 93.9375 128.05C93.5721 128.436 93.106 128.746 92.5392 128.981C91.7414 129.312 91.0428 129.397 90.4432 129.235C89.8402 129.075 89.3238 128.748 88.8941 128.254Z" fill="white"/>
<path d="M81.062 130.397L82.1366 129.755C82.2618 129.929 82.4203 130.088 82.6121 130.233C82.8011 130.382 83.0326 130.484 83.3064 130.54C83.5802 130.595 83.9055 130.572 84.2822 130.471C84.7979 130.332 85.1957 130.097 85.4756 129.767C85.7529 129.441 85.8428 129.097 85.7456 128.735C85.6591 128.413 85.4738 128.19 85.1896 128.067C84.9054 127.943 84.4979 127.886 83.9671 127.896L82.6337 127.926C81.8312 127.946 81.1946 127.818 80.724 127.54C80.2543 127.267 79.9404 126.835 79.7822 126.246C79.6525 125.764 79.6755 125.294 79.8513 124.839C80.0234 124.385 80.3269 123.981 80.7616 123.629C81.1964 123.276 81.7412 123.012 82.3958 122.835C83.2553 122.603 84.0168 122.598 84.6802 122.82C85.3437 123.041 85.8467 123.49 86.1893 124.167L85.0429 124.805C84.804 124.383 84.4914 124.102 84.105 123.963C83.7149 123.825 83.2547 123.828 82.7244 123.971C82.1209 124.133 81.6762 124.39 81.3902 124.742C81.1015 125.098 81.0058 125.458 81.1031 125.82C81.1817 126.112 81.35 126.33 81.6079 126.472C81.8667 126.618 82.2215 126.684 82.6723 126.668L84.1652 126.619C84.986 126.594 85.6291 126.724 86.0943 127.011C86.5569 127.302 86.8663 127.738 87.0226 128.32C87.1503 128.796 87.1298 129.252 86.9611 129.69C86.7887 130.129 86.4983 130.515 86.0898 130.849C85.6777 131.183 85.1754 131.431 84.5829 131.59C83.749 131.815 83.0452 131.809 82.4715 131.571C81.8941 131.334 81.4243 130.943 81.062 130.397Z" fill="white"/>
<path d="M75.6719 124.113C76.2203 124.041 76.7314 124.079 77.2052 124.228C77.6796 124.38 78.0739 124.636 78.3881 124.996C78.7029 125.359 78.897 125.823 78.9703 126.386C79.0348 126.882 78.9895 127.297 78.8343 127.63C78.6796 127.968 78.4503 128.246 78.1465 128.465C77.8428 128.684 77.4993 128.863 77.1162 129.001C76.7298 129.143 76.339 129.267 75.944 129.372C75.427 129.508 75.0073 129.614 74.6849 129.691C74.3593 129.772 74.127 129.865 73.988 129.971C73.8452 130.078 73.7878 130.238 73.8157 130.452L73.8215 130.497C73.8939 131.053 74.1022 131.465 74.4466 131.733C74.7871 132.002 75.2635 132.096 75.8758 132.017C76.5105 131.934 76.9901 131.73 77.3145 131.405C77.6389 131.079 77.8538 130.75 77.9592 130.415L79.2799 130.701C79.123 131.256 78.8758 131.705 78.5383 132.047C78.1976 132.393 77.8114 132.654 77.3796 132.829C76.9445 133.008 76.5091 133.126 76.0734 133.183C75.7955 133.219 75.4718 133.227 75.1024 133.206C74.7298 133.19 74.3613 133.103 73.9968 132.944C73.6286 132.786 73.3052 132.517 73.0265 132.137C72.7479 131.757 72.5638 131.223 72.4743 130.536L71.732 124.834L73.0616 124.66L73.2142 125.832L73.2818 125.823C73.3475 125.623 73.4716 125.403 73.654 125.161C73.8365 124.92 74.0926 124.701 74.4223 124.505C74.7521 124.309 75.1686 124.178 75.6719 124.113ZM75.6246 125.334C75.0987 125.402 74.669 125.564 74.3353 125.817C73.9979 126.071 73.7584 126.374 73.6169 126.725C73.4716 127.076 73.4225 127.432 73.4694 127.793L73.6279 129.01C73.6754 128.935 73.7913 128.856 73.9755 128.775C74.1565 128.698 74.3682 128.623 74.6107 128.549C74.85 128.479 75.0841 128.414 75.313 128.354C75.5387 128.298 75.7217 128.251 75.862 128.214C76.2017 128.123 76.5151 128.008 76.8024 127.867C77.0864 127.731 77.3075 127.551 77.4656 127.328C77.6205 127.109 77.6759 126.831 77.6319 126.493C77.5717 126.031 77.3554 125.704 76.9828 125.512C76.6069 125.324 76.1542 125.264 75.6246 125.334Z" fill="white"/>
<path d="M66.3406 124.938L65.3387 133.608L64.0519 133.458L64.2084 132.104L64.0956 132.091C63.8615 132.533 63.5283 132.858 63.0962 133.067C62.6636 133.28 62.165 133.354 61.6006 133.289C61.0287 133.222 60.5677 133.037 60.2177 132.734C59.8635 132.433 59.6059 132.039 59.4449 131.551L59.3546 131.541C59.0809 131.963 58.7068 132.28 58.2323 132.492C57.7575 132.708 57.2096 132.779 56.5888 132.707C55.8137 132.618 55.2077 132.301 54.7709 131.759C54.3336 131.22 54.1739 130.441 54.2917 129.421L54.9622 123.619L56.2942 123.773L55.6237 129.575C55.5498 130.215 55.672 130.693 55.9901 131.008C56.3083 131.323 56.7045 131.508 57.1786 131.563C57.7881 131.634 58.2816 131.504 58.6591 131.174C59.0362 130.848 59.2571 130.405 59.3219 129.844L59.9741 124.2L61.3287 124.357L60.6425 130.295C60.5856 130.788 60.6996 131.203 60.9847 131.541C61.2693 131.883 61.6637 132.083 62.1679 132.142C62.514 132.182 62.8483 132.127 63.1706 131.978C63.4892 131.828 63.7595 131.6 63.9817 131.294C64.1997 130.991 64.3333 130.627 64.3824 130.202L65.0086 124.784L66.3406 124.938Z" fill="white"/>
<path d="M51.3917 121.995C52.1973 122.236 52.8392 122.622 53.3174 123.152C53.7908 123.686 54.0896 124.321 54.2138 125.058C54.3332 125.797 54.2652 126.595 54.0097 127.452C53.7542 128.308 53.3731 129.017 52.8661 129.577C52.3545 130.139 51.7628 130.52 51.091 130.718C50.4144 130.919 49.6988 130.906 48.944 130.681C48.5085 130.55 48.1001 130.349 47.7188 130.077C47.3375 129.805 47.0214 129.453 46.7705 129.022C46.5184 128.595 46.3685 128.083 46.3208 127.488C46.2731 126.892 46.3656 126.204 46.5983 125.424L46.7607 124.88L53.2056 126.808L52.8744 127.919L47.7358 126.381C47.5951 126.853 47.5639 127.302 47.6422 127.729C47.7169 128.155 47.8946 128.526 48.1755 128.843C48.4528 129.16 48.8237 129.387 49.2882 129.526C49.7998 129.679 50.2805 129.685 50.73 129.543C51.1748 129.403 51.5571 129.161 51.8769 128.818C52.1966 128.475 52.4252 128.073 52.5627 127.612L52.7835 126.871C52.9719 126.24 53.0226 125.672 52.9359 125.167C52.8444 124.666 52.6368 124.242 52.3131 123.896C51.9883 123.553 51.5664 123.305 51.0475 123.149C50.71 123.048 50.3911 123.004 50.0908 123.017C49.7857 123.033 49.5047 123.107 49.2478 123.24C48.9897 123.376 48.763 123.573 48.5675 123.831L47.4303 123.111C47.6865 122.729 48.0165 122.424 48.4202 122.197C48.8229 121.974 49.2775 121.841 49.7841 121.799C50.2897 121.76 50.8256 121.826 51.3917 121.995Z" fill="white"/>
<path d="M40.8109 121.699L38.6477 126.383L37.4311 125.819L41.0904 117.896L42.307 118.46L41.6876 119.801L41.7701 119.839C42.1415 119.523 42.5882 119.314 43.1102 119.214C43.6307 119.117 44.1899 119.207 44.7879 119.484C45.2828 119.713 45.6727 120.026 45.9575 120.421C46.2408 120.819 46.3908 121.289 46.4074 121.831C46.4225 122.377 46.2744 122.987 45.9631 123.661L43.638 128.695L42.4213 128.131L44.7084 123.179C44.9752 122.602 45.0265 122.066 44.8623 121.572C44.6946 121.077 44.3581 120.713 43.8529 120.479C43.5505 120.338 43.2072 120.273 42.8229 120.283C42.4353 120.291 42.0611 120.406 41.7003 120.627C41.3361 120.846 41.0396 121.204 40.8109 121.699Z" fill="white"/>
<path d="M38.5646 112.408L31.2871 121.949L30.2584 121.162L31.0991 120.059L30.9728 119.963C30.8027 120.023 30.5772 120.094 30.2964 120.175C30.0103 120.256 29.6802 120.271 29.3059 120.218C28.9263 120.166 28.5109 119.967 28.0597 119.622C27.4762 119.176 27.0732 118.636 26.8508 118.003C26.6285 117.37 26.5969 116.69 26.7561 115.963C26.9153 115.236 27.2729 114.508 27.8288 113.779C28.3893 113.044 29 112.503 29.6609 112.154C30.3195 111.809 30.9824 111.659 31.6497 111.702C32.3147 111.748 32.936 111.992 33.5136 112.434C33.9587 112.775 34.2589 113.121 34.4141 113.474C34.5669 113.829 34.6432 114.157 34.6429 114.458C34.6402 114.761 34.6298 115.006 34.6115 115.192L34.7018 115.261L37.4997 111.593L38.5646 112.408ZM32.8867 117.678C33.2864 117.154 33.5623 116.633 33.7144 116.115C33.8642 115.6 33.8779 115.117 33.7554 114.665C33.6306 114.217 33.3546 113.829 32.9274 113.502C32.4822 113.162 32.0212 112.995 31.5442 113.002C31.0619 113.01 30.5928 113.156 30.1369 113.442C29.6756 113.728 29.2566 114.118 28.8799 114.612C28.5078 115.1 28.2476 115.597 28.0993 116.104C27.9458 116.611 27.9322 117.094 28.0584 117.553C28.1793 118.013 28.4654 118.416 28.9166 118.761C29.3497 119.093 29.7976 119.261 30.26 119.267C30.7202 119.276 31.1748 119.142 31.6239 118.865C32.0706 118.592 32.4915 118.196 32.8867 117.678Z" fill="white"/>
<path d="M30.1405 109.771L24.0623 116.034L23.1342 115.13L24.0522 114.184L23.9871 114.12C23.5724 114.319 23.1221 114.37 22.6363 114.272C22.1505 114.174 21.7203 113.943 21.3458 113.579C21.2753 113.51 21.1884 113.423 21.0852 113.317C20.982 113.211 20.9059 113.129 20.8569 113.071L21.8066 112.092C21.8313 112.132 21.894 112.217 21.9949 112.347C22.0904 112.477 22.2019 112.604 22.3295 112.728C22.6334 113.024 22.9668 113.225 23.3296 113.329C23.687 113.434 24.0431 113.443 24.3978 113.355C24.7472 113.267 25.0591 113.081 25.3334 112.798L29.1798 108.835L30.1405 109.771Z" fill="white"/>
<path d="M24.4125 103.274C24.9087 103.886 25.1986 104.542 25.2822 105.24C25.3634 105.936 25.2475 106.626 24.9344 107.31C24.6189 107.992 24.1115 108.617 23.4122 109.186C22.707 109.76 21.9876 110.132 21.2541 110.304C20.5182 110.473 19.8187 110.447 19.1557 110.224C18.4902 109.999 17.9094 109.58 17.4132 108.968C16.9171 108.356 16.6283 107.702 16.5471 107.007C16.4635 106.308 16.5809 105.617 16.8993 104.933C17.2153 104.246 17.726 103.616 18.4312 103.042C19.1305 102.473 19.8467 102.106 20.5796 101.939C21.3102 101.77 22.0082 101.798 22.6736 102.023C23.3367 102.245 23.9163 102.662 24.4125 103.274ZM23.4781 104.035C23.1011 103.57 22.672 103.284 22.1907 103.177C21.7094 103.071 21.2163 103.103 20.7116 103.275C20.2068 103.446 19.7282 103.716 19.2757 104.084C18.8231 104.452 18.4599 104.867 18.186 105.329C17.9121 105.791 17.7763 106.27 17.7787 106.767C17.7811 107.263 17.9707 107.743 18.3477 108.208C18.7246 108.673 19.1552 108.958 19.6394 109.062C20.1237 109.166 20.6197 109.131 21.1274 108.957C21.6351 108.783 22.1152 108.512 22.5677 108.144C23.0202 107.776 23.3819 107.362 23.6529 106.903C23.9239 106.443 24.0567 105.966 24.0514 105.472C24.0461 104.979 23.855 104.499 23.4781 104.035Z" fill="white"/>
<path d="M12.1111 101.043L13.0715 100.436L15.58 104.416L14.6196 105.023L12.1111 101.043ZM21.2443 99.1664L12.8502 104.475C12.4276 104.742 12.0128 104.866 11.6059 104.845C11.1989 104.824 10.8251 104.7 10.4842 104.472C10.1434 104.244 9.86193 103.953 9.63976 103.601C9.46404 103.322 9.34305 103.081 9.27678 102.876C9.21052 102.671 9.16932 102.514 9.15321 102.403L10.3389 102.11C10.356 102.18 10.3825 102.275 10.4183 102.396C10.4521 102.514 10.5205 102.654 10.6235 102.818C10.8598 103.192 11.1249 103.403 11.4188 103.451C11.7107 103.495 12.0392 103.401 12.4041 103.17L20.5293 98.032L21.2443 99.1664Z" fill="white"/>
<path d="M18.8799 95.169L11.1586 99.2368L10.5353 98.0496L18.2566 93.9818L18.8799 95.169ZM9.5548 99.3111C9.6763 99.5425 9.70232 99.7835 9.63285 100.034C9.56163 100.282 9.41542 100.463 9.19424 100.58C8.97306 100.696 8.74057 100.714 8.49678 100.633C8.25123 100.548 8.0677 100.39 7.9462 100.159C7.8247 99.9271 7.79956 99.6878 7.87079 99.4405C7.94025 99.1898 8.08558 99.0062 8.30676 98.8897C8.52794 98.7732 8.76131 98.7573 9.00686 98.842C9.25066 98.9233 9.4333 99.0797 9.5548 99.3111Z" fill="white"/>
<path d="M8.60911 88.7363L9.37837 89.7235C9.22101 89.8695 9.08246 90.0466 8.96272 90.255C8.83805 90.4613 8.76492 90.7039 8.74332 90.9827C8.72172 91.2615 8.78438 91.5816 8.93131 91.943C9.13243 92.4378 9.41403 92.8036 9.77609 93.0405C10.1332 93.2753 10.4854 93.3219 10.8326 93.1802C11.1413 93.0543 11.3394 92.8426 11.427 92.5451C11.5146 92.2476 11.521 91.8359 11.4462 91.31L11.253 89.9897C11.1345 89.1953 11.1839 88.5473 11.4011 88.0455C11.6148 87.5452 12.0039 87.1799 12.5686 86.9495C13.0316 86.7607 13.4997 86.7252 13.9728 86.8431C14.4446 86.9575 14.882 87.2087 15.285 87.5966C15.688 87.9845 16.0172 88.4925 16.2725 89.1206C16.6077 89.9452 16.7063 90.7007 16.5682 91.387C16.4301 92.0733 16.0466 92.6286 15.4176 93.0528L14.6437 91.994C15.033 91.7043 15.2729 91.3589 15.3634 90.9579C15.4525 90.5534 15.3936 90.0968 15.1867 89.588C14.9514 89.009 14.6418 88.5994 14.2579 88.3591C13.8691 88.1168 13.5011 88.0665 13.1538 88.2081C12.8732 88.3225 12.6782 88.5166 12.5687 88.7904C12.4556 89.0656 12.4345 89.426 12.5053 89.8717L12.7374 91.3479C12.863 92.1598 12.8123 92.8146 12.5852 93.3122C12.3532 93.8077 11.9584 94.1692 11.4007 94.3967C10.9448 94.5827 10.4893 94.6191 10.0345 94.506C9.57819 94.3894 9.15951 94.149 8.77843 93.7849C8.39593 93.4173 8.08914 92.9493 7.85806 92.3808C7.53283 91.5807 7.45287 90.8811 7.61817 90.2819C7.78204 89.6791 8.11235 89.1639 8.60911 88.7363Z" fill="white"/>
<path d="M6.51477 80.8763L7.15005 81.9546C6.97512 82.079 6.81482 82.2367 6.66914 82.4278C6.51883 82.6162 6.41495 82.8472 6.35749 83.1209C6.30003 83.3945 6.32079 83.72 6.41977 84.0974C6.55527 84.614 6.78724 85.0132 7.11568 85.295C7.43949 85.574 7.78272 85.6658 8.14538 85.5704C8.46773 85.4856 8.69157 85.3013 8.81689 85.0176C8.94221 84.734 9.00179 84.3266 8.99565 83.7956L8.9747 82.4615C8.95989 81.6585 9.09261 81.0224 9.37286 80.553C9.64944 80.0846 10.0826 79.7728 10.6724 79.6176C11.1559 79.4904 11.6247 79.5158 12.0787 79.694C12.5317 79.8686 12.933 80.1743 13.2825 80.611C13.6321 81.0478 13.8928 81.5942 14.0648 82.25C14.2907 83.111 14.2908 83.8728 14.0651 84.5354C13.8395 85.198 13.3873 85.6989 12.7088 86.038L12.0782 84.8879C12.5017 84.6511 12.7842 84.3398 12.9258 83.954C13.0664 83.5644 13.067 83.104 12.9277 82.5728C12.7691 81.9682 12.515 81.522 12.1654 81.2341C11.8112 80.9434 11.4527 80.8458 11.09 80.9413C10.797 81.0184 10.5785 81.1856 10.4345 81.4428C10.2868 81.701 10.2193 82.0556 10.2318 82.5067L10.2712 84.0004C10.2908 84.8217 10.1558 85.4643 9.86634 85.9283C9.57222 86.3895 9.13394 86.6968 8.5515 86.8501C8.07529 86.9754 7.61895 86.9525 7.18248 86.7815C6.74506 86.6067 6.36092 86.3142 6.03007 85.9038C5.69827 85.4898 5.45453 84.986 5.29885 84.3924C5.07975 83.557 5.09089 82.853 5.33228 82.2803C5.5727 81.7039 5.96687 81.2359 6.51477 80.8763Z" fill="white"/>
<path d="M12.8314 75.5129C12.8996 76.0617 12.8581 76.5726 12.707 77.0457C12.5521 77.5193 12.2936 77.9122 11.9317 78.2246C11.5659 78.5374 11.1012 78.729 10.5374 78.7993C10.0412 78.8611 9.62686 78.8136 9.29435 78.6565C8.95808 78.5 8.68129 78.2692 8.46399 77.9642C8.24668 77.6592 8.07028 77.3147 7.93478 76.9308C7.79505 76.5436 7.67388 76.1522 7.57127 75.7565C7.43821 75.2387 7.33444 74.8184 7.25997 74.4956C7.18127 74.1695 7.08935 73.9367 6.98421 73.7971C6.87861 73.6537 6.71868 73.5954 6.50443 73.6222L6.45933 73.6278C5.90303 73.6971 5.48969 73.9033 5.21931 74.2462C4.94847 74.5853 4.85112 75.0613 4.92726 75.674C5.00621 76.3093 5.20719 76.79 5.53018 77.1161C5.85318 77.4423 6.18166 77.659 6.51561 77.7663L6.22153 79.0855C5.66727 78.9256 5.22019 78.676 4.88029 78.3366C4.53617 77.994 4.27805 77.6063 4.10593 77.1735C3.92959 76.7374 3.81433 76.3014 3.76014 75.8653C3.72557 75.5872 3.71968 75.2634 3.74249 74.8941C3.76108 74.5216 3.85084 74.1535 4.01176 73.7898C4.17223 73.4225 4.4433 73.1005 4.82497 72.8238C5.20665 72.5472 5.74141 72.366 6.42927 72.2802L12.1351 71.5687L12.3005 72.8994L11.1277 73.0456L11.1361 73.1133C11.3353 73.1801 11.5551 73.3054 11.7955 73.4891C12.0359 73.6729 12.253 73.9302 12.4468 74.2611C12.6406 74.5919 12.7688 75.0092 12.8314 75.5129ZM11.6109 75.4589C11.5455 74.9327 11.387 74.502 11.1354 74.1669C10.8833 73.8281 10.5824 73.587 10.2325 73.4436C9.88209 73.2964 9.52648 73.2453 9.16564 73.2903L7.9478 73.4422C8.02246 73.4901 8.0999 73.6064 8.18011 73.7911C8.25609 73.9725 8.33017 74.1846 8.40235 74.4276C8.4703 74.6672 8.53379 74.9017 8.59283 75.131C8.64764 75.357 8.69331 75.5403 8.72986 75.6808C8.81794 76.021 8.93142 76.3351 9.07027 76.6232C9.20491 76.9079 9.38328 77.13 9.60538 77.2893C9.82326 77.4454 10.1013 77.5023 10.4396 77.4602C10.902 77.4025 11.2303 77.1879 11.4246 76.8163C11.6146 76.4414 11.6767 75.989 11.6109 75.4589Z" fill="white"/>
<path d="M12.0598 66.1613L3.39666 65.1056L3.55284 63.8196L4.90647 63.9846L4.92017 63.8717C4.4796 63.6349 4.15591 63.2997 3.94909 62.8662C3.73851 62.4322 3.66747 61.9332 3.73597 61.3692C3.80539 60.7977 3.99288 60.3378 4.29845 59.9896C4.60071 59.6372 4.99611 59.3821 5.48463 59.2241L5.49559 59.1338C5.07508 58.8574 4.76017 58.4814 4.55086 58.0056C4.33778 57.5293 4.26892 56.981 4.34427 56.3606C4.43835 55.5859 4.75782 54.9819 5.3027 54.5484C5.84381 54.1145 6.62385 53.9596 7.64283 54.0838L13.4408 54.7903L13.2792 56.1214L7.48117 55.4149C6.84196 55.337 6.36387 55.4562 6.04692 55.7724C5.72996 56.0887 5.54271 56.4837 5.48517 56.9575C5.41119 57.5667 5.53812 58.061 5.86596 58.4406C6.19004 58.8197 6.63221 59.0434 7.19245 59.1117L12.8326 59.799L12.6681 61.1526L6.73476 60.4296C6.2422 60.3696 5.8261 60.4811 5.48648 60.764C5.14309 61.0465 4.94081 61.4397 4.87961 61.9436C4.8376 62.2895 4.89044 62.6241 5.03815 62.9474C5.18632 63.2669 5.41277 63.5387 5.71752 63.7628C6.01897 63.9827 6.38213 64.1186 6.80702 64.1704L12.2215 64.8302L12.0598 66.1613Z" fill="white"/>
<path d="M15.0807 51.2106C14.8357 52.015 14.4468 52.6546 13.9141 53.1295C13.3789 53.5996 12.7427 53.8943 12.0054 54.0136C11.2657 54.1281 10.4684 54.0547 9.61352 53.7934C8.75862 53.5321 8.05262 53.146 7.49551 52.6351C6.93588 52.1194 6.55868 51.5249 6.3639 50.8514C6.16661 50.1732 6.18276 49.4573 6.41235 48.7036C6.54481 48.2688 6.74806 47.8615 7.02211 47.4819C7.29615 47.1022 7.64917 46.7883 8.08115 46.5401C8.50952 46.2908 9.02141 46.1442 9.61683 46.1004C10.2122 46.0567 10.8994 46.1538 11.6782 46.3919L12.2216 46.5579L10.2612 52.9933L9.1527 52.6544L10.7157 47.5236C10.2448 47.3797 9.79589 47.3454 9.369 47.4209C8.94322 47.4928 8.57103 47.6682 8.25245 47.9471C7.93496 48.2223 7.70558 48.5919 7.56429 49.0557C7.40865 49.5666 7.40077 50.0474 7.54065 50.4981C7.67801 50.9441 7.91738 51.3282 8.25876 51.6504C8.60014 51.9726 9.00085 52.204 9.4609 52.3446L10.1999 52.5705C10.8302 52.7632 11.3976 52.8178 11.9022 52.7343C12.4042 52.6462 12.8289 52.4413 13.1763 52.1197C13.5201 51.797 13.771 51.3766 13.9288 50.8585C14.0315 50.5215 14.0771 50.2027 14.0657 49.9022C14.0518 49.5969 13.9792 49.3153 13.8479 49.0573C13.713 48.7982 13.5172 48.57 13.2605 48.3727L13.9858 47.2398C14.3663 47.4987 14.669 47.8308 14.8939 48.2363C15.1152 48.6406 15.2457 49.0963 15.2852 49.6035C15.3211 50.1096 15.2529 50.6453 15.0807 51.2106Z" fill="white"/>
<path d="M15.4301 40.6118L10.762 38.415L11.3314 37.201L19.228 40.9172L18.6586 42.1312L17.3219 41.5021L17.2833 41.5845C17.5975 41.9584 17.8034 42.4069 17.901 42.9301C17.9953 43.4517 17.9025 44.0109 17.6226 44.6076C17.391 45.1014 17.0771 45.4896 16.6811 45.7721C16.2816 46.0529 15.811 46.1999 15.2694 46.2129C14.7243 46.2243 14.1159 46.072 13.4441 45.7558L8.42653 43.3945L8.99593 42.1805L13.9313 44.5031C14.5071 44.7741 15.0419 44.829 15.5358 44.668C16.0314 44.5035 16.3974 44.1691 16.6338 43.665C16.7754 43.3632 16.8422 43.02 16.8344 42.6354C16.8281 42.2473 16.7155 41.8719 16.4965 41.5093C16.2791 41.1432 15.9236 40.8441 15.4301 40.6118Z" fill="white"/>
<path d="M24.718 38.4112L15.2311 31.0628L16.0228 30.0374L17.1188 30.8863L17.216 30.7604C17.1564 30.5896 17.087 30.3634 17.0078 30.0817C16.928 29.7946 16.9153 29.4638 16.97 29.0893C17.024 28.7095 17.2245 28.2947 17.5717 27.8449C18.0208 27.2632 18.5618 26.863 19.1949 26.6443C19.8279 26.4255 20.507 26.3981 21.2322 26.5621C21.9574 26.7262 22.6823 27.0888 23.407 27.6502C24.1377 28.2162 24.6749 28.8312 25.0189 29.4952C25.3598 30.157 25.5068 30.8219 25.4601 31.49C25.4103 32.1558 25.1632 32.7765 24.7187 33.3522C24.3762 33.7959 24.0285 34.0944 23.6758 34.2476C23.32 34.3985 22.9923 34.4728 22.6925 34.4706C22.3898 34.4661 22.1454 34.4541 21.9594 34.4346L21.89 34.5245L25.5374 37.3498L24.718 38.4112ZM19.4864 32.6915C20.0075 33.0951 20.5262 33.3747 21.0425 33.5303C21.5559 33.6836 22.0382 33.7003 22.4897 33.5804C22.9381 33.4582 23.3267 33.1842 23.6554 32.7585C23.9979 32.3147 24.167 31.8539 24.1626 31.3762C24.1575 30.8931 24.0137 30.4223 23.7311 29.9639C23.4479 29.5002 23.0607 29.0781 22.5696 28.6977C22.0845 28.3219 21.5894 28.0582 21.0844 27.9066C20.5787 27.7496 20.0963 27.7329 19.6372 27.8565C19.1775 27.9747 18.774 28.2587 18.4268 28.7085C18.0935 29.1402 17.9227 29.5877 17.9145 30.0509C17.9032 30.5117 18.0344 30.9679 18.308 31.4193C18.5785 31.8685 18.9714 32.2925 19.4864 32.6915Z" fill="white"/>
<path d="M27.3943 29.9847L21.1774 23.8597L22.085 22.9353L23.024 23.8605L23.0877 23.7956C22.8916 23.379 22.8437 22.9277 22.944 22.4417C23.0444 21.9556 23.2777 21.5261 23.6439 21.1531C23.7129 21.0828 23.8005 20.9963 23.9067 20.8936C24.0129 20.7908 24.0952 20.7151 24.1537 20.6663L25.1251 21.6234C25.0851 21.6478 25 21.7102 24.8697 21.8104C24.7394 21.9054 24.6118 22.0163 24.4871 22.1434C24.1899 22.4461 23.9879 22.7788 23.8812 23.1416C23.7744 23.499 23.764 23.8557 23.8499 24.2115C23.9358 24.562 24.119 24.8754 24.3996 25.1519L28.3338 29.0279L27.3943 29.9847Z" fill="white"/>
<path d="M33.9117 24.2799C33.2976 24.7736 32.6416 25.0604 31.9436 25.1403C31.2486 25.2179 30.5604 25.098 29.879 24.7806C29.2006 24.4609 28.5796 23.9492 28.0159 23.2457C27.4475 22.5362 27.0798 21.8136 26.9127 21.078C26.7485 20.34 26.7795 19.6396 27.0056 18.9767C27.2346 18.3114 27.6562 17.732 28.2703 17.2384C28.8843 16.7447 29.5389 16.4591 30.2339 16.3816C30.9319 16.3016 31.6212 16.423 32.302 16.7457C32.9858 17.066 33.6118 17.5809 34.1802 18.2904C34.7439 18.994 35.1066 19.7133 35.2684 20.4483C35.4331 21.181 35.401 21.8799 35.1719 22.5452C34.9458 23.2081 34.5258 23.7863 33.9117 24.2799ZM33.1586 23.3399C33.625 22.9649 33.9129 22.5367 34.0222 22.0552C34.1315 21.5736 34.1021 21.0796 33.9342 20.5731C33.7662 20.0666 33.4999 19.5858 33.1351 19.1305C32.7704 18.6753 32.3582 18.3092 31.8986 18.0323C31.4389 17.7554 30.9614 17.6168 30.4661 17.6165C29.9708 17.6161 29.4899 17.8035 29.0234 18.1784C28.5569 18.5534 28.2702 18.9831 28.1633 19.4676C28.0564 19.9521 28.0881 20.449 28.2584 20.9585C28.4288 21.4679 28.6963 21.9503 29.061 22.4055C29.4257 22.8608 29.8368 23.2254 30.294 23.4993C30.7513 23.7732 31.2265 23.9089 31.7194 23.9063C32.2124 23.9036 32.6921 23.7149 33.1586 23.3399Z" fill="white"/>
<path d="M36.2132 11.972L36.8135 12.9369L32.8228 15.4282L32.2225 14.4633L36.2132 11.972ZM38.0281 21.1273L32.7814 12.6944C32.5173 12.2699 32.3968 11.8539 32.4199 11.4465C32.443 11.0391 32.5696 10.6654 32.7997 10.3253C33.0297 9.98519 33.3215 9.70481 33.6749 9.48417C33.9545 9.30965 34.1966 9.18975 34.4014 9.12445C34.6061 9.05916 34.7639 9.01873 34.8746 9.00316L35.1592 10.1919C35.0894 10.2087 34.994 10.2348 34.8732 10.27C34.7556 10.3032 34.6148 10.371 34.451 10.4733C34.075 10.708 33.8625 10.9724 33.8135 11.2664C33.7677 11.5585 33.8589 11.8878 34.087 12.2545L39.1656 20.4172L38.0281 21.1273Z" fill="white"/>
<path d="M42.033 18.7791L38.0213 11.0284L39.2113 10.4104L43.223 18.1611L42.033 18.7791ZM37.9578 9.42243C37.7259 9.54289 37.4849 9.56771 37.235 9.49689C36.9885 9.42433 36.8077 9.27703 36.6928 9.05501C36.5779 8.83299 36.5619 8.60015 36.6448 8.3565C36.731 8.1111 36.8901 7.92818 37.1221 7.80772C37.354 7.68726 37.5933 7.66331 37.8398 7.73588C38.0897 7.80669 38.2721 7.95311 38.3871 8.17514C38.502 8.39716 38.5163 8.63087 38.4301 8.87627C38.3472 9.11992 38.1898 9.30197 37.9578 9.42243Z" fill="white"/>
<path d="M48.5223 8.53162L47.5308 9.29656C47.386 9.13835 47.2099 8.9988 47.0025 8.87793C46.7972 8.75212 46.5553 8.67772 46.2769 8.65471C45.9984 8.6317 45.6782 8.69281 45.3161 8.83804C44.8203 9.03685 44.4529 9.31684 44.2139 9.67801C43.9769 10.0342 43.928 10.3865 44.0672 10.7347C44.1909 11.0442 44.4011 11.2435 44.6978 11.3327C44.9945 11.4218 45.4058 11.4303 45.9318 11.3581L47.2522 11.1714C48.0467 11.0568 48.694 11.1094 49.1938 11.3293C49.6923 11.5456 50.0548 11.9369 50.2811 12.5032C50.4667 12.9675 50.499 13.4361 50.378 13.9091C50.2606 14.3806 50.0067 14.8171 49.6164 15.2185C49.2262 15.6199 48.7164 15.9468 48.0871 16.1992C47.2609 16.5305 46.5054 16.6254 45.8206 16.4838C45.1358 16.3421 44.5835 15.9555 44.1638 15.324L45.227 14.5547C45.5138 14.9458 45.8573 15.1876 46.2573 15.2802C46.6609 15.3713 47.1176 15.3147 47.6274 15.1102C48.2074 14.8776 48.6188 14.5698 48.8614 14.1868C49.1061 13.7989 49.1589 13.4308 49.0197 13.0826C48.9072 12.8012 48.7146 12.605 48.4418 12.4941C48.1676 12.3796 47.8076 12.3566 47.3618 12.4252L45.8853 12.6501C45.0732 12.7718 44.4193 12.7177 43.9236 12.488C43.43 12.2533 43.0715 11.8564 42.8479 11.2971C42.6652 10.8399 42.6318 10.3839 42.7479 9.92927C42.8674 9.4732 43.1104 9.05539 43.4767 8.67583C43.8466 8.29486 44.3163 7.99017 44.8858 7.76175C45.6874 7.44026 46.387 7.36374 46.9846 7.53216C47.5858 7.69918 48.0983 8.03234 48.5223 8.53162Z" fill="white"/>
<path d="M56.389 6.47787L55.3068 7.10776C55.1837 6.93212 55.0271 6.77093 54.837 6.6242C54.6497 6.47286 54.4195 6.36773 54.1464 6.30882C53.8732 6.24992 53.5477 6.26899 53.1698 6.36604C52.6525 6.49889 52.252 6.72887 51.9681 7.05596C51.6871 7.37844 51.593 7.72133 51.686 8.08461C51.7686 8.40754 51.9513 8.63242 52.234 8.75927C52.5167 8.88611 52.9235 8.94784 53.4544 8.94447L54.7881 8.93047C55.5908 8.91984 56.2258 9.05593 56.6931 9.33874C57.1595 9.61787 57.4683 10.0528 57.6195 10.6436C57.7435 11.128 57.7149 11.5968 57.5337 12.0501C57.3563 12.5024 57.0481 12.9022 56.6091 13.2496C56.1702 13.597 55.6224 13.855 54.9656 14.0237C54.1035 14.2451 53.342 14.2412 52.6812 14.012C52.0204 13.7828 51.5227 13.3279 51.1882 12.6473L52.342 12.0225C52.5759 12.4473 52.8852 12.7316 53.27 12.8753C53.6584 13.018 54.1186 13.021 54.6506 12.8844C55.2559 12.7289 55.7037 12.4771 55.9938 12.1288C56.2867 11.7759 56.3866 11.4178 56.2936 11.0545C56.2185 10.761 56.0528 10.5415 55.7966 10.3961C55.5395 10.247 55.1855 10.1776 54.7345 10.1878L53.2412 10.2194C52.4201 10.2347 51.7786 10.0964 51.3168 9.80437C50.8577 9.50773 50.5535 9.06768 50.4041 8.48422C50.282 8.00717 50.3079 7.55078 50.4818 7.11504C50.6594 6.67835 50.9544 6.2956 51.3668 5.96677C51.7828 5.637 52.2881 5.39579 52.8824 5.24315C53.7189 5.02832 54.4226 5.04313 54.9935 5.2876C55.568 5.53113 56.0332 5.92788 56.389 6.47787Z" fill="white"/>
<path d="M61.6978 12.8266C61.1487 12.8919 60.638 12.8476 60.1659 12.6939C59.6934 12.5364 59.3021 12.2758 58.992 11.9121C58.6815 11.5447 58.4929 11.0788 58.4261 10.5146C58.3673 10.018 58.4174 9.60394 58.5765 9.27225C58.7351 8.9368 58.9676 8.66125 59.2739 8.44558C59.5802 8.22992 59.9258 8.05537 60.3105 7.92194C60.6985 7.7843 61.0906 7.66525 61.4869 7.56478C62.0055 7.43452 62.4264 7.33303 62.7496 7.2603C63.0762 7.18337 63.3095 7.09271 63.4498 6.98832C63.5937 6.88349 63.653 6.72386 63.6276 6.50945L63.6223 6.46431C63.5564 5.90759 63.3528 5.4931 63.0117 5.22084C62.6742 4.94813 62.199 4.84819 61.5858 4.92101C60.9502 4.99652 60.4682 5.1949 60.1401 5.51615C59.812 5.8374 59.5932 6.16472 59.4839 6.49812L58.1667 6.19685C58.33 5.64342 58.5824 5.19766 58.9238 4.85958C59.2685 4.51728 59.6578 4.26125 60.0916 4.09147C60.5287 3.91748 60.9654 3.80458 61.4018 3.75275C61.6801 3.71969 62.0038 3.71557 62.373 3.74038C62.7454 3.76099 63.1129 3.85276 63.4755 4.01567C63.8418 4.17814 64.1621 4.45098 64.4363 4.83419C64.7105 5.2174 64.8884 5.75319 64.9699 6.44157L65.6459 12.1517L64.3143 12.3099L64.1754 11.1362L64.1077 11.1443C64.0397 11.3431 63.913 11.5622 63.7278 11.8016C63.5425 12.0411 63.2839 12.2568 62.9519 12.4488C62.6199 12.6408 62.2019 12.7668 61.6978 12.8266ZM61.7593 11.6063C62.2859 11.5438 62.7175 11.3876 63.0541 11.1378C63.3945 10.8876 63.6375 10.5879 63.783 10.2387C63.9324 9.88914 63.9857 9.53379 63.9429 9.17267L63.7986 7.95391C63.7502 8.02832 63.6335 8.10513 63.4483 8.18434C63.2665 8.25934 63.0539 8.33228 62.8105 8.40314C62.5705 8.4698 62.3356 8.53202 62.106 8.58982C61.8797 8.6434 61.6961 8.68809 61.5554 8.72387C61.2147 8.81012 60.8999 8.92189 60.611 9.0592C60.3254 9.1923 60.1023 9.36947 59.9416 9.59073C59.7842 9.80778 59.7255 10.0856 59.7656 10.4241C59.8204 10.8868 60.033 11.2163 60.4033 11.4126C60.777 11.6047 61.229 11.6693 61.7593 11.6063Z" fill="white"/>
<path d="M89.5364 50.2067C88.7674 49.4831 88.0936 49.2998 87.0718 49.541C83.0185 50.4987 79.4939 52.3171 76.7694 55.531C76.3974 55.9698 76.077 56.4514 75.6658 57.0032C75.9631 57.0228 76.0903 57.0299 76.2176 57.0388C79.347 57.2613 82.181 59.3832 83.1636 62.2385C84.6945 66.6852 81.8365 71.5493 77.0738 72.2542C74.8354 72.5862 69.2191 72.4607 68.5863 72.4607C68.5863 70.0318 68.6335 66.6843 68.6335 64.2277C68.5436 64.258 55.3192 70.5177 55.2142 70.6228C55.2168 71.6401 55.1875 97.4071 55.5079 109.563C55.5097 109.563 55.8799 109.671 56.373 109.792C56.6382 109.857 56.9417 109.919 57.2372 109.987C57.8986 110.138 58.5688 110.261 58.5794 110.263C62.3275 101.079 68.6183 83.6941 68.6041 83.5C71.2645 83.5 73.8332 83.5428 76.3992 83.4903C80.3288 83.4093 83.9602 82.31 87.2178 80.0814C97.3911 73.1229 98.4947 58.6382 89.5355 50.2067H89.5364Z" fill="white"/>
<path d="M98.4974 44.1597C93.4624 42.6787 88.2912 42.1349 83.0568 42.1188C74.7268 42.0939 66.3968 42.1135 58.0677 42.0975C57.5959 42.0966 57.3307 42.2452 57.0681 42.6377C56.4638 43.5403 55.806 45.08 54.3766 45.8722C53.0798 46.5905 50.9722 46.6065 51.022 46.6065C51.127 46.6065 48.1916 46.6065 48.1916 46.6065H46.4098C46.4098 46.6065 46.3599 52.9534 46.3928 55.5746C46.3928 55.5942 46.4098 56.0419 46.4098 56.0419H51.0229C53.7491 56.0419 54.1683 56.147 54.6926 57.0904C55.2168 58.0339 55.2453 64.4654 55.2453 66.7234C55.9191 66.3033 68.3745 60.7005 68.6361 60.2359C69.8128 58.146 72.4251 53.0878 76.8139 50.1711C82.035 46.7017 89.4126 45.7307 92.0596 45.8677C93.7864 45.9576 95.473 46.2015 97.1214 46.6118C97.5237 45.7681 98.0542 44.9875 98.4992 44.1597H98.4974Z" fill="white"/>
<path d="M34.7376 42.9234H43.4663V59.1242C42.0262 59.1242 40.6582 59.1286 39.2902 59.1233C37.9934 59.1179 36.6957 59.0975 35.3989 59.093C35.0011 59.0912 34.6967 59.0645 34.6967 58.5243C34.694 53.4127 34.6744 48.3011 34.6628 43.1896C34.6628 43.1175 34.702 43.0454 34.7376 42.9243V42.9234Z" fill="white"/>
</svg>
