<?xml version="1.0" encoding="UTF-8"?>
<svg id="a" data-name="Camada 1" xmlns="http://www.w3.org/2000/svg" viewBox="0 0 100 100">
  <ellipse cx="50" cy="47.49" rx="50" ry="47.49" style="fill: #fb5708; stroke-width: 0px;"/>
  <g>
    <path id="b" data-name="P" d="M52.51,42.7c0,2.75-.06,6.49-.06,9.2.75,0,7.35.14,9.99-.23,5.6-.79,8.97-6.22,7.16-11.19-1.16-3.19-4.49-5.56-8.17-5.81-.15-.01-.3-.02-.65-.04.48-.62.86-1.15,1.3-1.64,3.21-3.59,7.35-5.62,12.12-6.69,1.2-.27,1.99-.06,2.9.74,10.54,9.42,9.24,25.61-2.73,33.38-3.83,2.49-8.11,3.72-12.73,3.81-3.02.06-6.04.01-9.17.01.02.29-15.69,36.14-15.42,35.76.15-.21-.33-48.66-.34-50.15.12-.12,15.68-7.11,15.79-7.15Z" style="fill: #fff; stroke-width: 0px;"/>
    <path d="M87.64,20.29c-5.92-1.65-12.01-2.26-18.17-2.28-9.8-.03-19.6,0-29.4-.02-.55,0-.87.17-1.18.6-.71,1.01-1.49,2.73-3.17,3.61-1.53.8-4.01.82-3.95.82.12,0-3.33,0-3.33,0h-2.1s-.06,7.09-.02,10.02c0,.02.02.52.02.52h5.43c3.21,0,3.7.12,4.32,1.17s.65,8.24.65,10.76c.79-.47,15.45-6.73,15.75-7.25,1.38-2.34,4.46-7.99,9.62-11.25,6.14-3.88,14.82-4.96,17.94-4.81,2.03.1,4.02.37,5.96.83.47-.94,1.1-1.81,1.62-2.74Z" style="fill: #fff; stroke-width: 0px;"/>
    <path id="c" data-name="PontaMartelo" d="M12.63,18.91h10.27v18.1c-1.69,0-3.3,0-4.91,0-1.53,0-3.05-.03-4.58-.03-.47,0-.83-.03-.83-.63,0-5.71-.03-11.42-.04-17.13,0-.08.05-.16.09-.3Z" style="fill: #e8eaea; stroke-width: 0px;"/>
  </g>
</svg>